<svg width="596" height="622" viewBox="0 0 596 622" fill="none" xmlns="http://www.w3.org/2000/svg">
<path d="M166.27 287.76C175.852 259.933 193.809 237.37 216.352 221.916C216.095 226.802 217.283 231.963 219.747 237.238C201.904 250.825 187.745 269.655 179.895 292.451C158.752 353.856 191.391 420.775 252.795 441.918C276.573 450.105 301.177 450.226 323.631 443.737C325.928 448.842 328.836 453.036 332.335 456.127C305.884 464.851 276.47 465.31 248.104 455.543C179.174 431.809 142.536 356.689 166.27 287.76Z" fill="#D9D9D9"/>
<path d="M133.177 276.365C163.205 189.158 258.242 142.805 345.449 172.833C432.655 202.861 479.008 297.898 448.98 385.104C418.953 472.311 323.916 518.664 236.709 488.636C149.502 458.608 103.15 363.571 133.177 276.365ZM150.415 282.3C123.666 359.987 164.958 444.648 242.644 471.398C320.331 498.147 404.993 456.855 431.742 379.169C458.492 301.483 417.199 216.821 339.513 190.071C261.827 163.322 177.165 204.614 150.415 282.3Z" fill="#D9D9D9"/>
<path d="M74.5551 256.179C115.731 136.597 246.051 73.0353 365.634 114.211C485.217 155.387 548.778 285.707 507.602 405.29C466.427 524.872 336.106 588.434 216.524 547.258C96.9409 506.083 33.3794 375.762 74.5551 256.179ZM98.193 264.319C61.5126 370.847 118.135 486.94 224.663 523.62C331.191 560.301 447.284 503.678 483.964 397.15C520.645 290.623 464.022 174.529 357.495 137.849C250.967 101.168 134.874 157.791 98.193 264.319Z" fill="#D9D9D9"/>
<path d="M353.04 485.822C355.964 475.665 363.128 465.606 373.709 458.236C384.569 450.671 396.839 447.464 407.581 448.48C406.303 456.363 407.668 464.072 412.066 470.385C417.156 477.693 425.408 481.838 434.836 482.73C432.95 494.368 425.305 506.385 413.147 514.854C396.721 526.295 377.074 527.767 364.36 519.737C367.072 510.319 366.139 500.816 360.899 493.294C358.78 490.252 356.111 487.762 353.04 485.822Z" fill="#D9D9D9"/>
<path d="M124.88 191.308C124.245 174.668 160.172 149.916 208.606 134.34C259.893 117.846 305.783 117.887 311.104 134.43C316.424 150.974 279.161 177.757 227.874 194.251C211.486 199.521 195.65 203.101 181.512 204.996C180.705 201.957 179.399 199.071 177.559 196.431C167.365 181.795 144.49 179.844 124.88 191.308Z" fill="#D9D9D9"/>
<path d="M251.083 122.53C256.22 105.928 302.107 105.379 353.573 121.304C366.691 125.363 378.905 130.102 389.739 135.183C377.095 141.319 368.676 152.194 368.641 164.612C368.61 175.784 375.372 185.747 385.913 192.153C370.666 190.623 353.167 187.054 334.971 181.424C283.505 165.5 245.947 139.132 251.083 122.53Z" fill="#D9D9D9"/>
</svg>
