<svg width="366" height="574" viewBox="0 0 366 574" fill="none" xmlns="http://www.w3.org/2000/svg">
<path d="M117.833 182.576L145.928 169.475L314.13 530.185C315.998 534.19 314.265 538.949 310.261 540.817L296.666 547.156C292.662 549.023 287.902 547.291 286.035 543.286L117.833 182.576Z" fill="#D9D9D9"/>
<path d="M164.673 176.546C159.051 184.236 157.678 194.671 161.988 203.914L162.833 205.727L134.738 218.828C129.459 207.508 117.331 201.569 105.589 203.642L104.356 200.998L163.266 173.528L164.673 176.546Z" fill="#D9D9D9"/>
<path d="M63.9714 29.535C98.077 13.6313 138.617 28.3869 154.521 62.4924L185.511 128.95C193.447 145.968 186.084 166.198 169.065 174.133L106.53 203.294C89.0112 211.463 68.1868 203.884 60.0176 186.365L30.1797 122.377C13.8734 87.4081 29.0025 45.8413 63.9714 29.535V29.535Z" fill="#D9D9D9"/>
<path d="M69.1831 41.0044C98.3915 27.3843 133.111 40.0212 146.731 69.2295L159.152 95.8659C167.087 112.884 159.725 133.114 142.706 141.049L98.1296 161.836C80.6107 170.005 59.7864 162.426 51.6172 144.907L40.2434 120.516C26.2785 90.5677 39.2353 54.9693 69.1831 41.0044V41.0044Z" fill="#C4C4C4"/>
</svg>
