<svg width="526" height="575" viewBox="0 0 526 575" fill="none" xmlns="http://www.w3.org/2000/svg">
<path d="M326.007 308.323C323.27 315.702 324.529 324.306 330.037 330.683L331.117 331.933L311.735 348.675C304.989 340.865 294.011 338.875 285.144 343.168L283.569 341.344L324.208 306.241L326.007 308.323Z" fill="#D9D9D9"/>
<path d="M314.029 245.165L327.987 261.325C340.261 275.535 338.692 297.005 324.482 309.28L290.418 338.702C275.79 351.338 253.688 349.722 241.053 335.094L227.748 319.691L314.029 245.165Z" fill="#D9D9D9"/>
<path d="M131.307 208.04C130.585 207.204 130.678 205.941 131.514 205.219L139.74 198.113C140.576 197.391 141.839 197.483 142.561 198.319L258.444 332.478L247.19 342.199L131.307 208.04Z" fill="#D9D9D9"/>
<path d="M156.316 186.438C155.594 185.602 155.687 184.339 156.522 183.617L164.749 176.511C165.585 175.789 166.848 175.881 167.57 176.717L283.453 310.877L272.199 320.597L156.316 186.438Z" fill="#D9D9D9"/>
<path d="M181.95 164.296C181.228 163.46 181.321 162.197 182.157 161.475L190.384 154.369C191.219 153.647 192.482 153.739 193.204 154.575L309.087 288.735L297.833 298.456L181.95 164.296Z" fill="#D9D9D9"/>
<path d="M206.334 143.234C205.612 142.398 205.704 141.135 206.54 140.413L214.767 133.307C215.603 132.585 216.866 132.678 217.588 133.514L333.471 267.673L322.217 277.394L206.334 143.234Z" fill="#D9D9D9"/>
<path d="M229 97C258.43 97 285.61 106.633 307.562 122.916C302.858 124.264 298.365 127.068 294.18 131.115C275.524 118.668 253.11 111.41 229 111.41C164.057 111.41 111.41 164.057 111.41 229C111.41 254.148 119.306 277.451 132.752 296.568C128.673 300.403 125.655 304.517 123.871 308.832C107.011 286.663 97 259.001 97 229C97 156.098 156.098 97 229 97Z" fill="#D9D9D9"/>
<path d="M102.535 338.077C113.09 337.535 124.934 341.034 135.347 348.639C146.036 356.445 153.062 367.002 155.598 377.49C147.729 378.848 140.885 382.648 136.347 388.862C131.095 396.054 129.862 405.205 132.089 414.41C120.471 416.416 106.618 413.1 94.653 404.362C78.4871 392.556 70.6994 374.458 74.1521 359.823C83.9404 359.32 92.6221 355.344 98.029 347.941C100.215 344.947 101.701 341.613 102.535 338.077Z" fill="#D9D9D9"/>
<path d="M306.722 26.4628C322.248 20.4458 357.348 46.3565 387.845 87.081C420.137 130.204 435.039 173.606 421.129 184.023C407.219 194.44 369.763 167.927 337.471 124.804C327.152 111.025 318.611 97.2165 312.217 84.4658C314.828 82.7133 317.13 80.5391 319.028 77.9404C329.548 63.536 323.945 41.2725 306.722 26.4628Z" fill="#D9D9D9"/>
<path d="M412.84 123.399C430.209 122.851 445.668 166.059 447.367 219.906C447.8 233.631 447.295 246.722 446.018 258.621C436.099 248.663 423.076 244.243 411.324 248.253C400.75 251.86 393.532 261.498 390.906 273.551C387.389 258.636 385.066 240.929 384.465 221.891C382.766 168.044 395.47 123.948 412.84 123.399Z" fill="#D9D9D9"/>
<path d="M523.544 554.71C526.432 558.054 526.062 563.105 522.719 565.993L515.445 572.276C512.102 575.164 507.049 574.795 504.161 571.451L366.532 412.115C373.366 406.974 379.903 401.46 386.112 395.603L523.544 554.71ZM229 0C355.473 0 458 102.527 458 229C458 294.65 430.373 353.848 386.112 395.603L369.753 376.663C408.719 339.51 433 287.091 433 229C433 116.334 341.666 25 229 25C116.334 25 25 116.334 25 229C25 341.666 116.334 433 229 433C274.364 433 316.268 418.189 350.146 393.145L366.532 412.115C328.236 440.924 280.613 458 229 458C102.527 458 0 355.473 0 229C0 102.527 102.527 0 229 0ZM229 62C321.232 62 396 136.768 396 229C396 275.902 376.665 318.287 345.531 348.621L333.588 334.794C360.865 307.826 377.769 270.388 377.769 229C377.769 146.837 311.163 80.2314 229 80.2314C146.837 80.2314 80.2314 146.837 80.2314 229C80.2314 311.163 146.837 377.769 229 377.769C260.559 377.769 289.822 367.94 313.897 351.179L325.874 365.045C298.554 384.534 265.116 396 229 396C136.768 396 62 321.232 62 229C62 136.768 136.768 62 229 62ZM369.753 376.663C363.574 382.554 357.024 388.059 350.146 393.145L325.874 365.045C332.844 360.073 339.415 354.58 345.531 348.621L369.753 376.663ZM333.588 334.794C327.514 340.799 320.928 346.284 313.897 351.179L290.133 323.666L309.515 306.924L333.588 334.794Z" fill="#D9D9D9"/>
</svg>
