<svg width="396" height="640" viewBox="0 0 396 640" fill="none" xmlns="http://www.w3.org/2000/svg">
<path d="M148.125 248.461L176.22 235.36L344.422 596.071C346.29 600.075 344.557 604.835 340.553 606.702L326.958 613.041C322.954 614.909 318.194 613.176 316.327 609.172L148.125 248.461Z" fill="#D9D9D9"/>
<path d="M194.965 242.432C189.343 250.121 187.97 260.557 192.28 269.8L193.125 271.612L165.029 284.714C159.751 273.393 147.623 267.455 135.881 269.528L134.647 266.883L193.557 239.413L194.965 242.432Z" fill="#D9D9D9"/>
<path d="M201.856 164.927L215.802 194.835C223.738 211.854 216.375 232.083 199.357 240.019L136.822 269.179C119.303 277.349 98.4783 269.769 90.3091 252.25L76.7854 223.248L201.856 164.927Z" fill="#D9D9D9"/>
<path d="M1.13668 61.0193C0.66987 60.0182 1.10298 58.8283 2.10406 58.3615L14.7924 52.4448C15.7934 51.978 16.9834 52.4111 17.4502 53.4122L108.313 248.268L91.9996 255.875L1.13668 61.0193Z" fill="#D9D9D9"/>
<path d="M37.389 44.1146C36.9222 43.1135 37.3553 41.9235 38.3564 41.4567L51.0447 35.5401C52.0458 35.0733 53.2357 35.5064 53.7025 36.5074L144.565 231.364L128.252 238.971L37.389 44.1146Z" fill="#D9D9D9"/>
<path d="M74.5476 26.7872C74.0808 25.7861 74.5139 24.5962 75.515 24.1294L88.2033 18.2127C89.2044 17.7459 90.3943 18.179 90.8612 19.1801L181.724 214.036L165.411 221.643L74.5476 26.7872Z" fill="#D9D9D9"/>
<path d="M109.894 10.3051C109.427 9.30405 109.86 8.11408 110.861 7.64727L123.549 1.73062C124.55 1.2638 125.74 1.69691 126.207 2.69799L217.07 197.554L200.757 205.161L109.894 10.3051Z" fill="#D9D9D9"/>
</svg>
